<mxfile host="www.draw.io" modified="2020-02-15T04:10:04.264Z" agent="Mozilla/5.0 (Macintosh; Intel Mac OS X 10_13_1) AppleWebKit/537.36 (KHTML, like Gecko) Chrome/80.0.3987.87 Safari/537.36" etag="ImLY72KtV38EU9hhZ-L9" version="12.7.0" type="github">
  <diagram id="z6mWfxhPlvkBPBS3VZm2" name="第 1 页">
    <mxGraphModel dx="946" dy="648" grid="1" gridSize="10" guides="1" tooltips="1" connect="1" arrows="1" fold="1" page="1" pageScale="1" pageWidth="827" pageHeight="1169" math="0" shadow="0">
      <root>
        <mxCell id="0"/>
        <mxCell id="1" parent="0"/>
        <mxCell id="F3MhlRDMAXvPKMbIA6Lk-1" value="Actor" style="shape=umlActor;verticalLabelPosition=bottom;labelBackgroundColor=#ffffff;verticalAlign=top;html=1;" vertex="1" parent="1">
          <mxGeometry x="140" y="180" width="30" height="60" as="geometry"/>
        </mxCell>
        <mxCell id="F3MhlRDMAXvPKMbIA6Lk-2" value="用户注册" style="ellipse;whiteSpace=wrap;html=1;" vertex="1" parent="1">
          <mxGeometry x="250" y="190" width="140" height="40" as="geometry"/>
        </mxCell>
        <mxCell id="F3MhlRDMAXvPKMbIA6Lk-4" value="手机号注册" style="ellipse;whiteSpace=wrap;html=1;" vertex="1" parent="1">
          <mxGeometry x="480" y="140" width="140" height="40" as="geometry"/>
        </mxCell>
        <mxCell id="F3MhlRDMAXvPKMbIA6Lk-5" value="微信号注册" style="ellipse;whiteSpace=wrap;html=1;" vertex="1" parent="1">
          <mxGeometry x="480" y="240" width="140" height="40" as="geometry"/>
        </mxCell>
        <mxCell id="F3MhlRDMAXvPKMbIA6Lk-6" value="Extends" style="endArrow=block;endSize=16;endFill=0;html=1;entryX=1;entryY=0.5;entryDx=0;entryDy=0;exitX=0;exitY=0.5;exitDx=0;exitDy=0;" edge="1" parent="1" source="F3MhlRDMAXvPKMbIA6Lk-4" target="F3MhlRDMAXvPKMbIA6Lk-2">
          <mxGeometry x="-0.2308" y="6" width="160" relative="1" as="geometry">
            <mxPoint x="370" y="300" as="sourcePoint"/>
            <mxPoint x="530" y="300" as="targetPoint"/>
            <mxPoint y="-1" as="offset"/>
          </mxGeometry>
        </mxCell>
        <mxCell id="F3MhlRDMAXvPKMbIA6Lk-9" value="Extends" style="endArrow=block;endSize=16;endFill=0;html=1;exitX=0;exitY=0.5;exitDx=0;exitDy=0;" edge="1" parent="1" source="F3MhlRDMAXvPKMbIA6Lk-5">
          <mxGeometry x="-0.2308" y="6" width="160" relative="1" as="geometry">
            <mxPoint x="490" y="160" as="sourcePoint"/>
            <mxPoint x="390" y="210" as="targetPoint"/>
            <mxPoint y="-1" as="offset"/>
          </mxGeometry>
        </mxCell>
        <mxCell id="F3MhlRDMAXvPKMbIA6Lk-14" value="" style="line;strokeWidth=1;fillColor=none;align=left;verticalAlign=middle;spacingTop=-1;spacingLeft=3;spacingRight=3;rotatable=0;labelPosition=right;points=[];portConstraint=eastwest;" vertex="1" parent="1">
          <mxGeometry x="170" y="206" width="80" height="8" as="geometry"/>
        </mxCell>
        <mxCell id="F3MhlRDMAXvPKMbIA6Lk-15" value="用户登录" style="ellipse;whiteSpace=wrap;html=1;" vertex="1" parent="1">
          <mxGeometry x="250" y="320" width="140" height="40" as="geometry"/>
        </mxCell>
        <mxCell id="F3MhlRDMAXvPKMbIA6Lk-19" value="" style="endArrow=none;html=1;edgeStyle=orthogonalEdgeStyle;entryX=0;entryY=0.5;entryDx=0;entryDy=0;" edge="1" parent="1" source="F3MhlRDMAXvPKMbIA6Lk-1" target="F3MhlRDMAXvPKMbIA6Lk-15">
          <mxGeometry relative="1" as="geometry">
            <mxPoint x="120" y="390" as="sourcePoint"/>
            <mxPoint x="280" y="390" as="targetPoint"/>
          </mxGeometry>
        </mxCell>
        <mxCell id="F3MhlRDMAXvPKMbIA6Lk-20" value="" style="resizable=0;html=1;align=left;verticalAlign=bottom;labelBackgroundColor=#ffffff;fontSize=10;" connectable="0" vertex="1" parent="F3MhlRDMAXvPKMbIA6Lk-19">
          <mxGeometry x="-1" relative="1" as="geometry"/>
        </mxCell>
        <mxCell id="F3MhlRDMAXvPKMbIA6Lk-21" value="" style="resizable=0;html=1;align=right;verticalAlign=bottom;labelBackgroundColor=#ffffff;fontSize=10;" connectable="0" vertex="1" parent="F3MhlRDMAXvPKMbIA6Lk-19">
          <mxGeometry x="1" relative="1" as="geometry"/>
        </mxCell>
        <mxCell id="F3MhlRDMAXvPKMbIA6Lk-22" value="信息互动" style="ellipse;whiteSpace=wrap;html=1;" vertex="1" parent="1">
          <mxGeometry x="250" y="450" width="140" height="40" as="geometry"/>
        </mxCell>
        <mxCell id="F3MhlRDMAXvPKMbIA6Lk-23" value="浏览" style="ellipse;whiteSpace=wrap;html=1;" vertex="1" parent="1">
          <mxGeometry x="380" y="370" width="60" height="40" as="geometry"/>
        </mxCell>
        <mxCell id="F3MhlRDMAXvPKMbIA6Lk-28" value="" style="endArrow=none;html=1;edgeStyle=orthogonalEdgeStyle;entryX=0;entryY=0.5;entryDx=0;entryDy=0;" edge="1" parent="1" target="F3MhlRDMAXvPKMbIA6Lk-22">
          <mxGeometry relative="1" as="geometry">
            <mxPoint x="170" y="210" as="sourcePoint"/>
            <mxPoint x="210" y="490" as="targetPoint"/>
          </mxGeometry>
        </mxCell>
        <mxCell id="F3MhlRDMAXvPKMbIA6Lk-29" value="" style="resizable=0;html=1;align=left;verticalAlign=bottom;labelBackgroundColor=#ffffff;fontSize=10;" connectable="0" vertex="1" parent="F3MhlRDMAXvPKMbIA6Lk-28">
          <mxGeometry x="-1" relative="1" as="geometry"/>
        </mxCell>
        <mxCell id="F3MhlRDMAXvPKMbIA6Lk-30" value="" style="resizable=0;html=1;align=right;verticalAlign=bottom;labelBackgroundColor=#ffffff;fontSize=10;" connectable="0" vertex="1" parent="F3MhlRDMAXvPKMbIA6Lk-28">
          <mxGeometry x="1" relative="1" as="geometry"/>
        </mxCell>
        <mxCell id="F3MhlRDMAXvPKMbIA6Lk-33" value="分享" style="ellipse;whiteSpace=wrap;html=1;" vertex="1" parent="1">
          <mxGeometry x="430" y="420" width="60" height="40" as="geometry"/>
        </mxCell>
        <mxCell id="F3MhlRDMAXvPKMbIA6Lk-34" value="点赞" style="ellipse;whiteSpace=wrap;html=1;" vertex="1" parent="1">
          <mxGeometry x="430" y="480" width="60" height="40" as="geometry"/>
        </mxCell>
        <mxCell id="F3MhlRDMAXvPKMbIA6Lk-35" value="评论" style="ellipse;whiteSpace=wrap;html=1;" vertex="1" parent="1">
          <mxGeometry x="380" y="520" width="60" height="40" as="geometry"/>
        </mxCell>
        <mxCell id="F3MhlRDMAXvPKMbIA6Lk-36" value="关注" style="ellipse;whiteSpace=wrap;html=1;" vertex="1" parent="1">
          <mxGeometry x="480" y="370" width="60" height="40" as="geometry"/>
        </mxCell>
      </root>
    </mxGraphModel>
  </diagram>
</mxfile>
